<svg width="57" height="56" viewBox="0 0 57 56" fill="none" xmlns="http://www.w3.org/2000/svg">
<rect x="0.100098" width="56" height="56" rx="28" fill="#F9FAFB"/>
<path d="M38.7669 40V37.3333C38.7669 35.9188 38.205 34.5623 37.2048 33.5621C36.2046 32.5619 34.8481 32 33.4336 32H22.7669C21.3524 32 19.9959 32.5619 18.9957 33.5621C17.9955 34.5623 17.4336 35.9188 17.4336 37.3333V40M33.4336 21.3333C33.4336 24.2789 31.0458 26.6667 28.1003 26.6667C25.1547 26.6667 22.7669 24.2789 22.7669 21.3333C22.7669 18.3878 25.1547 16 28.1003 16C31.0458 16 33.4336 18.3878 33.4336 21.3333Z" stroke="#475467" stroke-width="2.66667" stroke-linecap="round" stroke-linejoin="round"/>
</svg>
