<svg width="33" height="46" viewBox="0 0 33 46" fill="none" xmlns="http://www.w3.org/2000/svg">
<path d="M6.52 13.2199V6.69992C6.52003 5.55543 6.82131 4.43112 7.39358 3.43998C7.96584 2.44883 8.78891 1.62579 9.78007 1.05356C10.7712 0.481327 11.8956 0.180077 13.04 0.180084C14.1845 0.180091 15.3088 0.481356 16.3 1.0536C17.2912 0.481356 18.4155 0.180091 19.56 0.180084C20.7044 0.180077 21.8288 0.481327 22.8199 1.05356C23.8111 1.62579 24.6342 2.44883 25.2064 3.43998C25.7787 4.43112 26.08 5.55543 26.08 6.69992V13.2199H27.71C29.0069 13.2199 30.2507 13.7351 31.1677 14.6522C32.0848 15.5692 32.6 16.813 32.6 18.1099V39.2999C32.6 41.0291 31.9131 42.6875 30.6903 43.9102C29.4676 45.133 27.8092 45.8199 26.08 45.8199H6.52C4.79079 45.8199 3.1324 45.133 1.90966 43.9102C0.686926 42.6875 0 41.0291 0 39.2999V18.1099C0 16.813 0.515195 15.5692 1.43225 14.6522C2.3493 13.7351 3.59309 13.2199 4.89 13.2199H6.52ZM9.78 6.69992V13.2199H16.3V6.69992C16.3 5.83531 15.9565 5.00612 15.3452 4.39475C14.7338 3.78338 13.9046 3.43992 13.04 3.43992C12.1754 3.43992 11.3462 3.78338 10.7348 4.39475C10.1235 5.00612 9.78 5.83531 9.78 6.69992ZM26.08 42.5599C26.9446 42.5599 27.7738 42.2164 28.3852 41.6051C28.9965 40.9937 29.34 40.1645 29.34 39.2999V18.1099C29.34 17.6776 29.1683 17.263 28.8626 16.9573C28.5569 16.6516 28.1423 16.4799 27.71 16.4799H22.82V39.2999C22.82 40.1645 23.1635 40.9937 23.7748 41.6051C24.3862 42.2164 25.2154 42.5599 26.08 42.5599ZM19.56 16.4799H4.89C4.4577 16.4799 4.0431 16.6516 3.73742 16.9573C3.43173 17.263 3.26 17.6776 3.26 18.1099V39.2999C3.26 40.1645 3.60346 40.9937 4.21483 41.6051C4.8262 42.2164 5.65539 42.5599 6.52 42.5599H20.4337C19.8599 41.5694 19.5585 40.4446 19.56 39.2999V16.4799ZM19.56 6.69992V13.2199H22.82V6.69992C22.8204 6.20218 22.7068 5.71096 22.4879 5.26392C22.269 4.81689 21.9507 4.42591 21.5573 4.12096C21.1639 3.816 20.7059 3.60518 20.2184 3.50465C19.731 3.40411 19.2269 3.41654 18.745 3.54098C19.2666 4.4766 19.56 5.55566 19.56 6.69992Z" fill="#7A31DE"/>
</svg>
